<svg width="20" height="20" viewBox="0 0 20 20" fill="none" xmlns="http://www.w3.org/2000/svg">
<path fill-rule="evenodd" clip-rule="evenodd" d="M11.7741 1.41376C10.7497 0.549091 9.25102 0.549091 8.22655 1.41376L7.12873 2.34039C6.98359 2.4629 6.80397 2.53729 6.61472 2.5533L5.18321 2.67436C3.8474 2.78733 2.7877 3.84704 2.67473 5.18284L2.55367 6.61435C2.53766 6.80361 2.46326 6.98322 2.34076 7.12836L1.41413 8.22617C0.549457 9.25064 0.549457 10.7493 1.41413 11.7738L2.34076 12.8716C2.46326 13.0167 2.53766 13.1963 2.55367 13.3855L2.67473 14.8171C2.7877 16.1529 3.8474 17.2126 5.18321 17.3256L6.61472 17.4466C6.80397 17.4626 6.98359 17.537 7.12873 17.6595L8.22655 18.5862C9.25102 19.4508 10.7497 19.4508 11.7741 18.5862L12.8719 17.6595C13.0171 17.537 13.1967 17.4626 13.3859 17.4466L14.8175 17.3256C16.1532 17.2126 17.2129 16.1529 17.3259 14.8171L17.447 13.3855C17.463 13.1963 17.5374 13.0167 17.6599 12.8716L18.5865 11.7738C19.4512 10.7493 19.4512 9.25064 18.5865 8.22617L17.6599 7.12836C17.5374 6.98322 17.463 6.80361 17.447 6.61435L17.3259 5.18284C17.2129 3.84704 16.1532 2.78733 14.8175 2.67436L13.3859 2.5533C13.1967 2.53729 13.0171 2.4629 12.8719 2.34039L11.7741 1.41376ZM14.2503 8.29171C14.5725 7.96952 14.5725 7.44716 14.2503 7.12498C13.9281 6.8028 13.4058 6.8028 13.0836 7.12498L9.08363 11.1249L6.917 8.95831C6.59482 8.63611 6.07246 8.63611 5.75028 8.95831C5.42809 9.28052 5.42809 9.80284 5.75028 10.125L8.50027 12.875C8.82247 13.1973 9.34479 13.1973 9.667 12.875L14.2503 8.29171Z" fill="#00FF38"/>
</svg>
