<svg width="20" height="20" viewBox="0 0 20 20" fill="none" xmlns="http://www.w3.org/2000/svg">
<path d="M7.30875 12.025L8.65042 12.6249C9.50875 13.0083 10.4921 13.0083 11.3587 12.6249L12.7004 12.025C13.9004 11.4916 15.0088 12.9416 14.1754 13.9583L11.2921 17.4833C10.5838 18.3499 9.42542 18.3499 8.70875 17.4833L5.83375 13.9583C4.99209 12.9416 6.10042 11.4916 7.30875 12.025Z" fill="white"/>
<path d="M7.14108 9.72498C6.89108 9.90831 6.92441 10.2916 7.20774 10.4333L9.16608 11.4083C9.62441 11.6416 10.3661 11.6416 10.8161 11.4083L12.7744 10.4333C13.0494 10.2916 13.0827 9.91664 12.8411 9.72498L10.2494 7.77498C10.0994 7.66664 9.89941 7.66664 9.74941 7.77498L7.14108 9.72498Z" fill="white"/>
<path d="M14.9003 6.86664L11.4253 2.5333C11.3586 2.44997 11.2836 2.37497 11.2086 2.29997C10.9919 2.09164 10.6836 2.2833 10.6836 2.5833V6.16664C10.6836 6.29997 10.7419 6.42497 10.8503 6.49997L14.3086 9.09997L14.4586 9.2083C14.6086 9.31664 14.8169 9.31664 14.9419 9.1833C15.5253 8.54997 15.5169 7.6333 14.9003 6.86664Z" fill="white"/>
<path d="M5.0909 6.94166L8.54923 2.54166C8.6159 2.45833 8.68256 2.38333 8.75756 2.30833C8.97423 2.09999 9.28256 2.28333 9.28256 2.59166V6.23333C9.28256 6.36666 9.22423 6.48333 9.1159 6.56666L5.67423 9.20833L5.53256 9.31666C5.38256 9.42499 5.17423 9.42499 5.0409 9.28333C4.47423 8.64166 4.48256 7.72499 5.0909 6.94166Z" fill="white"/>
</svg>
