<svg width="40" height="41" viewBox="0 0 40 41" fill="none" xmlns="http://www.w3.org/2000/svg">
<path d="M18.1318 12.5078L18.4998 12.4978H33.4998C35.1598 12.4977 36.7569 13.1326 37.9637 14.2725C39.1704 15.4123 39.8954 16.9706 39.9898 18.6278L39.9998 18.9978V33.9978C40 35.6581 39.3647 37.2555 38.2245 38.4623C37.0843 39.6691 35.5255 40.3938 33.8678 40.4878L33.4998 40.4978H18.4998C16.8396 40.498 15.2422 39.8627 14.0354 38.7225C12.8286 37.5823 12.1038 36.0235 12.0098 34.3658L11.9998 33.9998V18.9998C11.9997 17.3396 12.635 15.7422 13.7752 14.5354C14.9154 13.3286 16.4742 12.6038 18.1318 12.5098V12.5078ZM33.4998 15.4978H18.4998C17.6215 15.4979 16.7752 15.8282 16.1291 16.4232C15.4829 17.0182 15.0841 17.8344 15.0118 18.7098L14.9998 18.9978V33.9978C14.9999 34.8765 15.3305 35.7231 15.9259 36.3693C16.5214 37.0155 17.3381 37.414 18.2138 37.4858L18.4998 37.4978H33.4998C34.3785 37.4978 35.2251 37.1672 35.8713 36.5718C36.5175 35.9763 36.916 35.1596 36.9878 34.2838L36.9998 33.9978V18.9978C36.9998 18.0696 36.6311 17.1793 35.9747 16.523C35.3183 15.8666 34.4281 15.4978 33.4998 15.4978ZM25.9998 18.4998C26.3977 18.4998 26.7792 18.6579 27.0605 18.9392C27.3418 19.2205 27.4998 19.602 27.4998 19.9998V24.9958H32.4998C32.8977 24.9958 33.2792 25.1539 33.5605 25.4352C33.8418 25.7165 33.9998 26.098 33.9998 26.4958C33.9998 26.8937 33.8418 27.2752 33.5605 27.5565C33.2792 27.8378 32.8977 27.9958 32.4998 27.9958H27.4998V32.9998C27.4998 33.3977 27.3418 33.7792 27.0605 34.0605C26.7792 34.3418 26.3977 34.4998 25.9998 34.4998C25.602 34.4998 25.2205 34.3418 24.9392 34.0605C24.6579 33.7792 24.4998 33.3977 24.4998 32.9998V27.9958H19.4998C19.102 27.9958 18.7205 27.8378 18.4392 27.5565C18.1579 27.2752 17.9998 26.8937 17.9998 26.4958C17.9998 26.098 18.1579 25.7165 18.4392 25.4352C18.7205 25.1539 19.102 24.9958 19.4998 24.9958H24.4998V19.9998C24.4998 19.602 24.6579 19.2205 24.9392 18.9392C25.2205 18.6579 25.602 18.4998 25.9998 18.4998ZM27.1638 4.96584L27.2678 5.31984L28.6538 10.4958H25.5478L24.3718 6.09584C24.253 5.65163 24.0478 5.23518 23.768 4.8703C23.4881 4.50542 23.1391 4.19926 22.7409 3.96932C22.3427 3.73938 21.9031 3.59016 21.4471 3.5302C20.9912 3.47023 20.528 3.50069 20.0838 3.61984L5.59584 7.50384C4.7501 7.73064 4.02009 8.26621 3.54986 9.00486C3.07964 9.74352 2.90337 10.6316 3.05584 11.4938L3.11984 11.7898L7.00384 26.2778C7.18602 26.9586 7.56949 27.5686 8.10405 28.0279C8.63861 28.4871 9.29937 28.7743 9.99984 28.8518V31.8638C8.69949 31.7863 7.45237 31.3202 6.42004 30.5257C5.3877 29.7312 4.61772 28.645 4.20984 27.4078L4.10584 27.0558L0.223843 12.5658C-0.206152 10.9626 -0.00648552 9.25558 0.781898 7.79484C1.57028 6.3341 2.88764 5.23032 4.46384 4.70984L4.81984 4.60584L19.3078 0.723843C20.9111 0.293848 22.6181 0.493514 24.0788 1.2819C25.5396 2.07028 26.6434 3.38764 27.1638 4.96384V4.96584Z" fill="#F81DFB"/>
</svg>
