<svg width="48" height="42" viewBox="0 0 48 42" fill="none" xmlns="http://www.w3.org/2000/svg">
<path d="M7.5 9C7.10218 9 6.72064 8.84196 6.43934 8.56066C6.15804 8.27936 6 7.89782 6 7.5C6 7.10218 6.15804 6.72064 6.43934 6.43934C6.72064 6.15804 7.10218 6 7.5 6H40.5C40.8978 6 41.2794 6.15804 41.5607 6.43934C41.842 6.72064 42 7.10218 42 7.5C42 7.89782 41.842 8.27936 41.5607 8.56066C41.2794 8.84196 40.8978 9 40.5 9H7.5ZM13.5 3C13.1022 3 12.7206 2.84196 12.4393 2.56066C12.158 2.27936 12 1.89782 12 1.5C12 1.10218 12.158 0.720644 12.4393 0.43934C12.7206 0.158035 13.1022 0 13.5 0H34.5C34.8978 0 35.2794 0.158035 35.5607 0.43934C35.842 0.720644 36 1.10218 36 1.5C36 1.89782 35.842 2.27936 35.5607 2.56066C35.2794 2.84196 34.8978 3 34.5 3H13.5ZM0 37.5C0 38.6935 0.474106 39.8381 1.31802 40.682C2.16193 41.5259 3.30653 42 4.5 42H43.5C44.6935 42 45.8381 41.5259 46.682 40.682C47.5259 39.8381 48 38.6935 48 37.5V16.5C48 15.3065 47.5259 14.1619 46.682 13.318C45.8381 12.4741 44.6935 12 43.5 12H4.5C3.30653 12 2.16193 12.4741 1.31802 13.318C0.474106 14.1619 0 15.3065 0 16.5L0 37.5ZM4.5 39C4.10218 39 3.72064 38.842 3.43934 38.5607C3.15804 38.2794 3 37.8978 3 37.5V16.5C3 16.1022 3.15804 15.7206 3.43934 15.4393C3.72064 15.158 4.10218 15 4.5 15H43.5C43.8978 15 44.2794 15.158 44.5607 15.4393C44.842 15.7206 45 16.1022 45 16.5V37.5C45 37.8978 44.842 38.2794 44.5607 38.5607C44.2794 38.842 43.8978 39 43.5 39H4.5Z" fill="#F81DFB"/>
</svg>
