<svg width="41" height="39" viewBox="0 0 41 39" fill="none" xmlns="http://www.w3.org/2000/svg">
<path d="M39.1668 15.4997H37.8335V7.49967C37.8335 7.14605 37.693 6.80691 37.443 6.55686C37.1929 6.30681 36.8538 6.16634 36.5002 6.16634H4.50018C4.18446 6.17149 3.87716 6.06442 3.633 5.86421C3.38883 5.66399 3.22364 5.38362 3.16685 5.07301V4.59301C3.22364 4.2824 3.38883 4.00202 3.633 3.80181C3.87716 3.60159 4.18446 3.49452 4.50018 3.49967H35.9402C36.2938 3.49967 36.6329 3.3592 36.883 3.10915C37.133 2.8591 37.2735 2.51996 37.2735 2.16634C37.2735 1.81272 37.133 1.47358 36.883 1.22353C36.6329 0.973484 36.2938 0.833008 35.9402 0.833008H4.50018C3.43932 0.833008 2.4219 1.25444 1.67176 2.00458C0.92161 2.75473 0.500183 3.77214 0.500183 4.83301C0.490824 4.99287 0.490824 5.15314 0.500183 5.31301V32.7397C0.505417 33.4576 0.652005 34.1674 0.931577 34.8286C1.21115 35.4899 1.61823 36.0896 2.12957 36.5935C2.64092 37.0974 3.24651 37.4957 3.91178 37.7655C4.57704 38.0354 5.28895 38.1716 6.00685 38.1663H36.5002C36.8538 38.1663 37.1929 38.0259 37.443 37.7758C37.693 37.5258 37.8335 37.1866 37.8335 36.833V28.833H39.1668C39.5205 28.833 39.8596 28.6925 40.1097 28.4425C40.3597 28.1924 40.5002 27.8533 40.5002 27.4997V16.833C40.5002 16.4794 40.3597 16.1402 40.1097 15.8902C39.8596 15.6401 39.5205 15.4997 39.1668 15.4997ZM35.1668 35.4997H6.00685C5.26525 35.5068 4.55082 35.2209 4.01897 34.704C3.48712 34.1871 3.18087 33.4812 3.16685 32.7397V8.673C3.59965 8.79843 4.05 8.85247 4.50018 8.833H35.1668V15.4997H25.8335C24.0654 15.4997 22.3697 16.202 21.1195 17.4523C19.8692 18.7025 19.1668 20.3982 19.1668 22.1663C19.1668 23.9344 19.8692 25.6301 21.1195 26.8804C22.3697 28.1306 24.0654 28.833 25.8335 28.833H35.1668V35.4997ZM37.8335 26.1663H25.8335C24.7726 26.1663 23.7552 25.7449 23.0051 24.9948C22.2549 24.2446 21.8335 23.2272 21.8335 22.1663C21.8335 21.1055 22.2549 20.0881 23.0051 19.3379C23.7552 18.5878 24.7726 18.1663 25.8335 18.1663H37.8335V26.1663Z" fill="#F81DFB"/>
</svg>
