<svg width="17" height="16" viewBox="0 0 17 16" fill="none" xmlns="http://www.w3.org/2000/svg">
<path d="M16.5463 3.57395C16.2832 2.97242 15.9038 2.42731 15.4295 1.96915C14.9547 1.50962 14.395 1.14444 13.7807 0.893462C13.1437 0.632183 12.4606 0.498446 11.7708 0.500014C10.8032 0.500014 9.85907 0.761667 9.03863 1.2559C8.84235 1.37413 8.65588 1.50399 8.47923 1.64547C8.30258 1.50399 8.11612 1.37413 7.91984 1.2559C7.09939 0.761667 6.15529 0.500014 5.18764 0.500014C4.49085 0.500014 3.81565 0.631809 3.17775 0.893462C2.56143 1.14542 2.00597 1.50786 1.52901 1.96915C1.05401 2.42679 0.674566 2.97203 0.412185 3.57395C0.139358 4.19998 0 4.86477 0 5.54895C0 6.19436 0.133469 6.8669 0.398445 7.55108C0.62024 8.12284 0.938211 8.71592 1.34451 9.31481C1.9883 10.2626 2.87352 11.251 3.97268 12.2531C5.79414 13.9141 7.59794 15.0615 7.67449 15.108L8.13967 15.4026C8.34576 15.5325 8.61074 15.5325 8.81683 15.4026L9.28201 15.108C9.35856 15.0596 11.1604 13.9141 12.9838 12.2531C14.083 11.251 14.9682 10.2626 15.612 9.31481C16.0183 8.71592 16.3382 8.12284 16.5581 7.55108C16.823 6.8669 16.9565 6.19436 16.9565 5.54895C16.9585 4.86477 16.8191 4.19998 16.5463 3.57395ZM8.47923 13.8695C8.47923 13.8695 1.49172 9.44855 1.49172 5.54895C1.49172 3.57395 3.14634 1.97302 5.18764 1.97302C6.62244 1.97302 7.86684 2.7638 8.47923 3.91895C9.09162 2.7638 10.336 1.97302 11.7708 1.97302C13.8121 1.97302 15.4667 3.57395 15.4667 5.54895C15.4667 9.44855 8.47923 13.8695 8.47923 13.8695Z" fill="white"/>
</svg>
